<svg viewBox="0 0 60 60" x="0" y="0" width="100" height="100" class="image-svg-svg bn" style="overflow: visible;"><g hollow-target="iconBnFill" mask="url(#5162f403-1b75-4827-9712-afe85f774a06)"><g><svg viewBox="0 0 100 100" xmlns="http://www.w3.org/2000/svg" style="overflow: visible;" width="60" height="60" x="0" y="0" filtersec="colorsf9346315960" filter="url(#srMzfffa1fE9GOeULCmog)"><g transform="scale(1, 1) skewX(0)"><rect x="537" y="3121" width="100" height="100" rx="30" transform="translate(-537 -3121)" fill="#333" fill-rule="evenodd"></rect></g><defs><filter id="srMzfffa1fE9GOeULCmog"><feColorMatrix type="matrix" values="0 0 0 0 0.19921875  0 0 0 0 0.19921875  0 0 0 0 0.19921875  0 0 0 1 0"></feColorMatrix></filter></defs></svg></g> <g filter="url(#colors5068411139)"><svg xmlns="http://www.w3.org/2000/svg" xmlns:xlink="http://www.w3.org/1999/xlink" viewBox="0 0 39.024 50.11200000000001" width="45" height="45" x="7.5" y="7.5" class="image-svg-letter"><path transform="translate(-2.5200000000000005 42.40800000000001)" d="M18.43-42.41L18.43-21.67L13.46-17.35L18.43-13.10L18.43 7.70Q16.99 7.20 15.66 6.55Q14.33 5.90 13.10 5.18L13.10 5.18L13.10-11.16L8.57-15.12L7.85-15.12L7.85 1.15Q4.54-1.80 2.52-5.54L2.52-5.54L2.52-29.16Q4.97-33.62 9.04-37.04Q13.10-40.46 18.43-42.41L18.43-42.41ZM13.10-23.54L13.10-34.06Q12.17-33.19 11.45-32.58Q10.73-31.97 10.15-31.32Q9.58-30.67 9.04-29.95Q8.50-29.23 7.85-28.15L7.85-28.15L7.85-19.66L8.64-19.66L13.10-23.54ZM28.73-15.12L28.73-0.65Q34.06-5.04 36.07-11.09L36.07-11.09L41.54-11.09Q40.68-7.92 39.02-5.08Q37.37-2.23 35.03 0.18Q32.69 2.59 29.77 4.50Q26.86 6.41 23.47 7.70L23.47 7.70L23.47-42.41Q26.86-41.11 29.77-39.20Q32.69-37.30 35.03-34.85Q37.37-32.40 39.02-29.56Q40.68-26.71 41.54-23.54L41.54-23.54L36.07-23.54Q34.06-29.59 28.73-33.98L28.73-33.98L28.73-19.66L36.07-19.66L36.07-15.12L28.73-15.12Z"></path></svg></g></g><mask id="5162f403-1b75-4827-9712-afe85f774a06"><g fill="white"><svg viewBox="0 0 100 100" xmlns="http://www.w3.org/2000/svg" style="overflow: visible;" width="60" height="60" x="0" y="0" filtersec="colorsf9346315960"><g transform="scale(1, 1) skewX(0)"><rect x="537" y="3121" width="100" height="100" rx="30" transform="translate(-537 -3121)" fill-rule="evenodd"></rect></g><defs></defs></svg></g> <g fill="black"><svg xmlns="http://www.w3.org/2000/svg" xmlns:xlink="http://www.w3.org/1999/xlink" viewBox="0 0 39.024 50.11200000000001" width="45" height="45" x="7.5" y="7.5" class="image-svg-letter"><path transform="translate(-2.5200000000000005 42.40800000000001)" d="M18.43-42.41L18.43-21.67L13.46-17.35L18.43-13.10L18.43 7.70Q16.99 7.20 15.66 6.55Q14.33 5.90 13.10 5.18L13.10 5.18L13.10-11.16L8.57-15.12L7.85-15.12L7.85 1.15Q4.54-1.80 2.52-5.54L2.52-5.54L2.52-29.16Q4.97-33.62 9.04-37.04Q13.10-40.46 18.43-42.41L18.43-42.41ZM13.10-23.54L13.10-34.06Q12.17-33.19 11.45-32.58Q10.73-31.97 10.15-31.32Q9.58-30.67 9.04-29.95Q8.50-29.23 7.85-28.15L7.85-28.15L7.85-19.66L8.64-19.66L13.10-23.54ZM28.73-15.12L28.73-0.65Q34.06-5.04 36.07-11.09L36.07-11.09L41.54-11.09Q40.68-7.92 39.02-5.08Q37.37-2.23 35.03 0.18Q32.69 2.59 29.77 4.50Q26.86 6.41 23.47 7.70L23.47 7.70L23.47-42.41Q26.86-41.11 29.77-39.20Q32.69-37.30 35.03-34.85Q37.37-32.40 39.02-29.56Q40.68-26.71 41.54-23.54L41.54-23.54L36.07-23.54Q34.06-29.59 28.73-33.98L28.73-33.98L28.73-19.66L36.07-19.66L36.07-15.12L28.73-15.12Z"></path></svg></g></mask></svg>